<?xml version="1.0" encoding="utf-8"?>
<!-- Generator: Adobe Illustrator 25.0.0, SVG Export Plug-In . SVG Version: 6.00 Build 0)  -->
<svg version="1.1" id="Capa_1" xmlns="http://www.w3.org/2000/svg" xmlns:xlink="http://www.w3.org/1999/xlink" x="0px" y="0px"
	 viewBox="0 0 54.6 63.9" style="enable-background:new 0 0 54.6 63.9;" xml:space="preserve">
<style type="text/css">
	.st0{fill:#58595B;}
	.st1{fill:#C60C30;}
</style>
<g>
	<g>
		<path class="st0" d="M54.1,54.4c-0.3,0.3-0.7,0.5-1.1,0.5c-0.5,0-0.8-0.2-1.1-0.5s-0.5-0.7-0.5-1.1c0-0.4,0.2-0.8,0.5-1.1
			s0.7-0.5,1.1-0.5c0.5,0,0.8,0.2,1.1,0.5s0.5,0.7,0.5,1.1S54.4,54.1,54.1,54.4 M51.9,52.2c-0.3,0.3-0.4,0.6-0.4,1s0.1,0.7,0.4,1
			c0.3,0.3,0.6,0.4,1,0.4s0.7-0.1,1-0.4c0.3-0.3,0.4-0.6,0.4-1s-0.1-0.7-0.4-1c-0.3-0.3-0.6-0.4-1-0.4C52.6,51.8,52.2,52,51.9,52.2
			 M52.9,52.3c0.2,0,0.4,0,0.5,0.1c0.2,0.1,0.3,0.2,0.3,0.5c0,0.2-0.1,0.3-0.2,0.3c-0.1,0-0.2,0.1-0.3,0.1c0.1,0,0.2,0.1,0.3,0.2
			c0.1,0.1,0.1,0.2,0.1,0.3v0.1c0,0.1,0,0.1,0,0.1c0,0.1,0,0.1,0,0.1l0,0h-0.3l0,0l0,0V54v-0.1c0-0.2-0.1-0.3-0.2-0.4
			c-0.1,0-0.2,0-0.4,0h-0.2v0.7h-0.3v-1.8h0.7V52.3z M53.3,52.6c-0.1-0.1-0.2-0.1-0.4-0.1h-0.3v0.6h0.3c0.1,0,0.2,0,0.3,0
			s0.2-0.1,0.2-0.3C53.4,52.7,53.3,52.7,53.3,52.6"/>
	</g>
	<polygon class="st1" points="51.3,12.7 51.3,0 0.3,0 0.3,51.1 30,51.1 30,25.9 43,25.9 43,51.1 51.3,51.1 51.3,23.8 28.1,23.8 
		32,12.7 	"/>
	<g>
		<path class="st0" d="M0,56.2l0.5-1.8h4.2c0,0,2.3,0.3,2.3,2.1s-1.2,1.8-1.2,1.8s1.5,1.2,1.5,2.5c0,1.4-1.5,2-1.7,2H0.3v-6.2h2.2
			V61h1.6c0,0,1,0,0.6-0.8c-0.4-0.9-2.1-1.7-2.1-1.7s1.4-0.8,1.6-1.3c0.3-0.5,0.1-0.7-0.2-0.7H0V56.2z"/>
	</g>
	<polygon class="st0" points="7.9,54.3 12.9,54.3 13.5,56.2 10.1,56.2 10.1,57.4 13.3,57.4 12.8,59.3 10.1,59.3 10.1,60.8 
		13.8,60.8 13.3,62.6 7.9,62.6 	"/>
	<polygon class="st0" points="37.9,54.3 42.9,54.3 43.5,56.2 40.1,56.2 40.1,57.4 43.3,57.4 42.8,59.3 40.1,59.3 40.1,60.8 
		43.8,60.8 43.3,62.6 37.8,62.6 	"/>
	<g>
		<path class="st0" d="M14.1,56.2l0.4-1.9h4.4c0,0,2.5,0.2,2.4,2.4c0,1.3-1.8,2.4-1.8,2.4s1.7,2.9,2.4,3.5l-1.8,1.3
			c0,0-1.7-2.3-2.1-3c-0.4-0.6-1.2-2.2-1.2-2.2s1.3-1,1.6-1.3c0.3-0.3,0.6-0.6,0.5-0.8c-0.1-0.5-0.6-0.5-1-0.5
			C17.5,56.2,14.1,56.2,14.1,56.2"/>
	</g>
	<rect x="14.5" y="57" class="st0" width="2.2" height="6.2"/>
	<g>
		<path class="st0" d="M44.1,56.2l0.4-1.9h4.3c0,0,2.5,0.2,2.4,2.4c0,1.3-1.8,2.4-1.8,2.4s1.7,2.9,2.4,3.5L50,63.9
			c0,0-1.7-2.3-2.1-3c-0.4-0.6-1.2-2.2-1.2-2.2s1.3-1,1.6-1.3s0.6-0.6,0.5-0.8c-0.1-0.5-0.6-0.5-1-0.5
			C47.4,56.2,44.1,56.2,44.1,56.2"/>
	</g>
	<rect x="44.4" y="57" class="st0" width="2.2" height="6.2"/>
	<g>
		<path class="st0" d="M28.3,54.3h-3.2c0,0-1.9,0.1-2.6,1.3c-0.5,0.9-0.7,2.1-0.3,3.7c0.5,1.7,2.3,2.8,3.3,3.1
			c1.1,0.4,3.4,0.2,3.4,0.2v-5.7h-3v1.9h0.8v1.7c0,0,0,0.3-0.5,0.2c-0.6-0.2-1.6-0.8-1.8-1.7c-0.3-0.9-0.4-2,0.2-2.5
			c0.5-0.4,1.1-0.3,1.3-0.3h3L28.3,54.3z"/>
	</g>
	<polygon class="st0" points="30,54.3 32.1,54.3 34.6,56.9 34.6,54.3 36.8,54.3 36.8,62.6 34.6,62.6 34.6,60.2 32.2,57.3 32.2,62.6 
		30,62.6 	"/>
</g>
</svg>
