<svg width="37" height="44" viewBox="0 0 37 44" fill="none" xmlns="http://www.w3.org/2000/svg">
<g clip-path="url(#clip0_1127_7385)">
<path d="M33.5961 10.2629L21.6109 3.13283C19.6537 1.96874 17.2324 1.96874 15.255 3.13283L3.2899 10.2629C1.33271 11.427 0.12207 13.5889 0.12207 15.9378V30.1564C0.12207 32.4846 1.33271 34.6465 3.2899 35.8313L15.2752 42.9614C17.2324 44.1255 19.6537 44.1255 21.631 42.9614L33.6163 35.8313C35.5735 34.6672 36.7842 32.5054 36.7842 30.1564V15.9378C36.764 13.5889 35.5533 11.4478 33.5961 10.2629Z" fill="white"/>
<path d="M31.8467 18.0358C30.7019 17.7092 30.202 17.6602 30.202 17.6602C30.0085 17.6275 29.2506 17.4968 28.2187 17.4642C27.3963 17.3335 26.5417 17.1048 25.9773 16.6312C25.3646 16.1085 24.3326 15.2102 23.9295 14.9978C23.9134 14.9815 23.8973 14.9815 23.8811 14.9815C22.3332 13.8545 20.4466 13.2012 18.4149 13.2012C16.0929 13.2012 13.9806 14.0342 12.3359 15.4225C11.8683 15.7818 11.3039 16.2718 10.9169 16.6148C10.3526 17.1048 9.49796 17.3172 8.6756 17.4478C7.64362 17.4805 6.88576 17.6275 6.69227 17.6438C6.69227 17.6438 6.24078 17.6928 5.17655 17.9868C4.70894 18.1175 4.66056 18.7708 5.09593 18.9832C5.09593 18.9832 5.11205 18.9832 5.11205 18.9995C5.80541 19.3425 6.46652 19.8978 7.28888 21.2208C8.27248 22.7888 8.44986 23.7852 9.07872 25.2878C10.0946 29.5998 13.8839 32.8012 18.3988 32.8012C22.7524 32.8012 26.4288 29.8285 27.6059 25.7615C28.4122 23.9812 28.525 22.9522 29.6054 21.2208C30.4277 19.8978 31.0889 19.3425 31.7822 18.9995C31.8306 18.9832 31.879 18.9505 31.9273 18.9342C32.3305 18.7545 32.2821 18.1502 31.8467 18.0358ZM14.7223 25.5818C13.4324 25.2225 12.6261 24.0138 12.6261 24.0138C12.6261 24.0138 14.0129 22.9848 15.3028 23.3442C16.5928 23.7035 17.3023 25.3042 17.3023 25.3042C17.3023 25.3042 16.0123 25.9412 14.7223 25.5818ZM22.3977 25.5818C21.1077 25.9412 19.8177 25.2878 19.8177 25.2878C19.8177 25.2878 20.5111 23.6872 21.8172 23.3278C23.1072 22.9685 24.4939 23.9975 24.4939 23.9975C24.4939 23.9975 23.6876 25.2388 22.3977 25.5818Z" fill="black"/>
</g>
<defs>
<clipPath id="clip0_1127_7385">
<rect width="37" height="42" fill="white" transform="translate(0 2)"/>
</clipPath>
</defs>
</svg>
